<?xml version="1.0" encoding="UTF-8" ?>
<!DOCTYPE svg PUBLIC "-//W3C//DTD SVG 1.1//EN" "http://www.w3.org/Graphics/SVG/1.1/DTD/svg11.dtd">
<svg width="653pt" height="709pt" viewBox="0 0 653 709" version="1.1" xmlns="http://www.w3.org/2000/svg">
<g id="#000000f1">
<path fill="#FFFFFF" opacity="0.95" d=" M 262.33 0.00 L 270.67 0.00 C 277.67 2.35 284.72 6.04 287.70 13.31 C 292.30 21.45 288.35 30.29 285.30 38.16 C 281.67 44.38 285.26 51.59 287.21 57.73 C 291.25 69.90 301.36 78.35 308.12 88.88 C 319.08 92.41 331.03 92.94 342.24 90.26 C 344.51 83.10 351.22 79.27 355.66 73.69 C 362.76 65.05 367.24 54.19 368.33 43.07 C 365.64 33.48 358.71 23.27 364.30 13.31 C 367.28 6.04 374.33 2.35 381.33 0.00 L 389.67 0.00 C 396.67 2.35 403.72 6.04 406.70 13.31 C 411.30 21.45 407.35 30.30 404.30 38.16 C 400.98 43.59 403.73 49.94 405.38 55.43 C 409.02 66.72 416.10 76.73 425.44 84.03 C 426.83 163.76 425.43 243.53 426.15 323.27 C 434.38 313.16 444.32 304.70 453.48 295.48 C 459.71 288.85 468.05 284.98 476.08 281.05 C 482.71 278.29 485.82 271.29 489.90 265.93 C 498.67 252.49 512.09 243.10 524.99 233.99 C 534.28 227.79 544.21 222.17 551.85 213.86 C 568.69 195.16 578.53 171.22 585.03 147.20 C 588.03 137.42 588.87 126.86 586.24 116.89 C 583.93 106.77 584.16 96.36 584.24 86.04 C 586.38 86.25 588.53 86.45 590.68 86.64 C 590.59 89.55 590.45 92.46 590.37 95.36 C 592.00 92.53 593.52 89.63 595.12 86.78 C 594.17 93.70 591.10 100.28 590.85 107.29 C 591.48 116.49 596.32 125.54 593.85 134.86 C 590.70 147.82 585.83 160.28 581.73 172.95 C 577.40 181.16 575.19 190.21 571.50 198.64 C 566.32 206.30 561.40 214.27 555.07 221.04 C 548.28 225.88 541.47 230.72 534.92 235.89 C 519.55 246.19 503.20 256.24 492.83 272.07 C 504.89 268.64 516.39 263.45 527.43 257.54 C 534.56 253.84 542.30 251.60 549.61 248.33 C 558.61 243.16 567.90 238.44 576.39 232.42 C 582.40 228.13 589.07 224.60 594.07 219.06 C 604.50 207.78 610.55 193.47 618.15 180.32 C 621.93 173.44 621.56 165.32 623.87 157.96 C 626.46 149.36 628.65 140.63 629.82 131.72 C 631.29 121.38 634.51 111.10 640.54 102.48 C 643.34 98.15 648.59 96.57 653.00 94.52 L 653.00 97.07 C 642.98 108.45 636.60 123.10 635.87 138.28 C 634.94 144.07 635.25 150.26 632.74 155.70 C 629.02 164.02 626.54 172.83 622.94 181.20 C 616.44 193.88 609.13 206.19 600.68 217.67 C 594.02 226.64 584.53 232.77 575.92 239.63 C 563.56 251.32 546.76 255.44 532.01 263.02 C 524.51 266.64 516.29 268.67 509.30 273.34 C 499.48 279.83 486.58 281.19 478.87 290.83 C 469.60 302.48 465.09 316.94 457.63 329.69 C 451.77 339.48 448.36 350.43 444.99 361.25 C 440.75 372.29 440.02 384.35 435.02 395.16 C 441.75 398.60 449.06 400.81 455.67 404.51 C 465.01 410.54 474.02 417.24 481.81 425.22 C 488.30 431.88 497.36 435.36 503.42 442.54 C 510.77 450.55 517.63 459.02 524.85 467.16 C 532.01 474.80 537.47 483.79 544.42 491.60 C 550.13 497.89 554.76 505.17 561.15 510.84 C 569.23 517.98 578.13 524.67 588.54 527.96 C 594.38 530.06 599.93 532.84 605.65 535.24 C 614.96 538.68 624.83 540.08 634.58 541.69 C 634.58 542.23 634.58 543.33 634.58 543.88 C 627.62 544.29 620.64 544.30 613.68 544.51 C 620.29 546.46 629.80 545.38 631.69 554.22 C 627.58 553.18 623.62 551.90 619.71 550.32 C 622.97 554.72 626.29 559.12 628.76 564.04 C 623.69 560.12 618.42 556.35 612.28 554.33 C 612.21 555.51 612.16 556.70 612.11 557.89 C 615.10 558.69 618.36 559.16 620.86 561.12 C 622.86 563.16 623.63 566.06 624.81 568.60 C 619.34 567.77 613.82 567.17 608.29 567.51 C 614.68 570.21 621.55 572.67 625.97 578.37 C 619.59 577.96 613.25 577.19 606.89 576.65 C 611.49 579.42 616.33 582.21 619.19 586.97 C 615.04 586.00 611.03 584.58 607.09 582.96 C 610.06 588.12 612.29 593.69 613.33 599.59 C 608.82 595.65 604.44 591.56 599.84 587.76 C 604.50 595.27 607.94 603.50 609.18 612.31 C 605.67 608.67 602.12 605.05 598.80 601.23 C 594.65 596.44 591.33 590.68 585.69 587.43 C 574.68 581.19 563.15 575.87 551.24 571.56 C 544.59 569.17 539.21 564.47 533.66 560.26 C 528.14 555.83 522.45 551.31 518.86 545.09 C 509.84 530.63 499.06 517.38 490.08 502.91 C 483.99 495.39 480.79 485.96 474.22 478.81 C 470.02 473.99 465.93 469.08 461.92 464.11 C 452.66 452.91 440.11 444.62 426.09 440.74 C 425.87 499.18 426.02 557.62 426.10 616.05 C 425.27 620.17 427.62 626.43 422.82 628.73 C 412.12 635.00 405.93 646.29 403.02 658.01 C 397.58 669.82 411.71 680.05 407.02 691.98 C 405.01 700.91 397.02 706.59 388.67 709.00 L 380.33 709.00 C 373.33 706.65 366.28 702.95 363.30 695.69 C 357.71 685.72 364.64 675.52 367.33 665.93 C 366.86 658.56 364.13 651.59 361.04 644.98 C 357.97 639.33 355.16 632.91 349.17 629.78 C 343.01 624.74 334.91 628.57 327.89 628.19 C 318.52 629.67 307.80 623.68 299.85 630.84 C 289.49 639.31 284.39 652.99 282.67 665.93 C 285.36 675.52 292.28 685.72 286.70 695.69 C 283.72 702.95 276.67 706.65 269.67 709.00 L 261.33 709.00 C 254.33 706.65 247.28 702.95 244.30 695.69 C 238.72 685.72 245.64 675.52 248.33 665.93 C 247.46 655.91 243.36 646.39 238.04 637.96 C 235.47 632.70 230.06 630.14 225.45 627.03 C 225.09 611.30 224.28 595.58 224.83 579.84 C 211.05 588.09 199.51 599.85 184.77 606.49 C 169.18 612.50 154.71 621.58 138.15 624.86 C 132.59 625.41 127.00 624.58 121.45 624.32 C 113.03 623.19 103.53 623.85 96.20 618.74 C 88.26 612.76 81.97 604.99 74.39 598.60 C 62.59 588.52 54.68 575.02 44.60 563.40 C 35.31 552.75 31.72 538.67 23.79 527.19 C 16.98 521.28 8.27 518.20 0.00 514.92 L 0.00 512.38 C 6.16 515.14 12.92 516.43 19.67 516.13 C 14.40 513.66 8.83 511.90 3.19 510.52 C 3.53 509.73 3.87 508.94 4.21 508.16 C 8.69 508.89 13.11 509.91 17.55 510.86 C 17.54 510.31 17.53 509.21 17.52 508.66 C 14.84 507.92 12.15 507.18 9.47 506.43 C 9.46 505.89 9.43 504.80 9.42 504.26 C 15.85 505.60 23.22 504.76 28.64 508.99 C 27.95 512.65 24.54 516.36 26.82 520.09 C 31.50 528.92 36.79 537.42 41.87 546.03 C 50.08 561.67 59.50 577.39 73.66 588.39 C 79.31 592.65 83.69 598.33 89.35 602.58 C 96.19 608.44 104.10 612.84 112.01 617.07 C 119.65 621.05 128.76 621.00 137.00 619.14 C 147.14 617.11 159.31 616.33 165.91 607.13 C 140.92 607.91 118.02 594.38 100.81 577.29 C 95.92 570.91 90.35 565.09 85.40 558.76 C 78.36 548.09 71.59 537.24 64.46 526.62 C 57.42 516.44 55.69 503.88 51.09 492.62 C 49.51 488.61 46.20 485.65 44.23 481.88 C 46.44 479.40 49.57 477.96 52.26 476.11 C 53.33 478.86 54.38 481.62 55.45 484.37 C 56.18 478.45 56.30 472.47 56.82 466.54 C 60.50 474.60 60.97 483.51 61.82 492.20 C 64.33 503.41 68.78 514.07 72.13 525.04 C 76.11 537.77 85.21 547.67 92.38 558.61 C 98.68 568.99 109.88 574.87 119.87 581.13 C 128.83 585.92 138.47 579.06 146.70 575.78 C 156.00 571.86 165.50 568.32 174.20 563.12 C 188.69 554.59 201.07 542.91 215.92 534.94 C 218.92 533.08 222.59 531.76 224.56 528.69 C 225.75 515.16 224.93 501.55 225.03 488.00 C 224.95 373.00 225.03 258.00 224.99 143.00 C 225.00 123.32 224.74 103.64 225.49 83.98 C 235.81 77.41 242.91 66.95 246.61 55.43 C 248.26 49.94 251.02 43.59 247.70 38.16 C 244.64 30.30 240.69 21.45 245.30 13.31 C 248.28 6.04 255.33 2.35 262.33 0.00 M 263.43 10.46 C 253.49 11.88 249.72 25.56 256.39 32.60 C 261.88 39.06 273.55 38.17 277.90 30.87 C 280.44 27.15 280.38 22.23 278.91 18.10 C 276.60 12.18 269.60 8.69 263.43 10.46 M 382.43 10.46 C 372.49 11.88 368.72 25.56 375.39 32.60 C 380.88 39.06 392.54 38.17 396.90 30.87 C 399.44 27.15 399.38 22.23 397.91 18.10 C 395.60 12.18 388.60 8.69 382.43 10.46 M 259.40 46.27 C 257.49 54.27 255.16 62.23 251.60 69.65 C 247.93 76.18 243.31 82.13 239.55 88.61 C 256.48 96.79 277.20 97.64 293.64 87.84 C 291.11 83.94 288.21 80.30 285.54 76.51 C 279.38 67.49 276.08 56.93 273.70 46.37 C 268.94 46.73 264.16 46.50 259.40 46.27 M 378.40 46.27 C 376.49 54.27 374.16 62.23 370.60 69.65 C 366.93 76.18 362.31 82.13 358.55 88.61 C 375.48 96.79 396.20 97.64 412.64 87.84 C 410.11 83.94 407.21 80.30 404.54 76.51 C 398.38 67.49 395.07 56.93 392.70 46.37 C 387.94 46.73 383.16 46.50 378.40 46.27 M 236.04 97.96 C 235.89 272.03 236.15 446.10 235.91 620.17 C 249.39 630.62 268.22 632.81 284.15 627.24 C 289.89 624.87 297.35 620.51 295.96 613.06 C 296.07 441.41 295.95 269.75 296.02 98.10 C 277.46 107.80 254.68 107.19 236.04 97.96 M 355.04 97.96 C 354.89 272.03 355.15 446.10 354.91 620.17 C 368.39 630.62 387.22 632.81 403.15 627.24 C 408.89 624.87 416.35 620.51 414.96 613.06 C 415.07 441.41 414.95 269.75 415.02 98.10 C 396.46 107.80 373.68 107.19 355.04 97.96 M 306.97 99.29 C 307.08 271.45 306.90 443.60 307.06 615.76 C 310.42 616.44 313.76 617.18 317.14 617.81 C 326.05 620.19 335.18 617.69 343.98 616.08 C 344.01 444.12 344.01 272.16 343.98 100.20 C 340.34 100.94 336.67 101.57 332.98 101.97 C 324.22 103.65 315.50 101.03 306.97 99.29 M 468.64 292.81 C 459.48 298.66 451.30 305.89 443.71 313.64 C 436.56 318.77 430.40 325.37 426.53 333.33 C 425.18 353.29 426.17 373.33 426.26 393.33 C 430.58 384.76 434.21 375.83 436.96 366.64 C 439.47 356.61 444.45 347.47 447.85 337.75 C 455.13 323.70 459.71 308.15 469.45 295.46 C 469.18 294.57 468.91 293.69 468.64 292.81 M 433.55 400.05 C 431.85 405.02 429.64 409.79 427.70 414.66 C 433.47 415.47 439.38 415.73 445.00 417.35 C 453.18 420.46 461.51 423.13 469.86 425.74 C 470.27 424.77 470.68 423.80 471.10 422.84 C 459.47 413.84 446.78 406.42 433.55 400.05 M 425.80 418.89 C 425.92 422.81 426.14 426.74 426.45 430.67 C 429.95 434.39 435.45 435.14 439.79 437.48 C 446.38 440.41 450.92 446.36 457.16 449.89 C 464.73 454.31 468.05 462.89 474.14 468.85 C 482.63 477.81 490.99 487.12 496.43 498.33 C 500.77 507.84 508.90 514.85 514.28 523.70 C 520.78 533.91 526.38 545.29 536.43 552.57 C 543.64 559.35 552.71 563.37 561.57 567.47 C 572.28 572.72 582.30 579.57 593.79 583.11 C 596.43 583.99 598.85 582.07 601.22 581.18 C 599.42 573.58 605.96 568.94 608.91 562.91 C 608.50 560.08 606.57 557.83 605.04 555.54 C 605.74 553.37 606.49 551.21 607.23 549.05 C 605.04 546.71 603.05 544.17 600.73 541.97 C 595.75 538.93 589.55 538.63 584.63 535.46 C 579.46 532.45 576.01 527.25 570.81 524.28 C 566.66 521.81 561.74 520.34 558.57 516.49 C 554.13 511.25 549.33 506.35 544.57 501.42 C 540.16 496.99 537.92 490.92 533.53 486.49 C 525.92 479.28 521.56 469.34 513.79 462.22 C 504.50 454.01 495.10 445.77 484.20 439.73 C 473.54 432.29 461.35 427.15 448.74 424.11 C 441.44 421.06 433.55 420.12 425.80 418.89 M 201.88 551.83 C 192.04 559.19 181.22 565.19 170.14 570.47 C 165.97 572.67 164.23 577.72 159.86 579.67 C 153.66 582.55 146.75 583.52 140.72 586.85 C 137.68 588.63 131.78 589.83 133.28 594.48 C 138.47 597.38 144.50 598.27 150.36 598.65 C 161.90 599.77 174.15 604.75 184.95 597.86 C 192.21 592.50 200.61 588.52 206.57 581.56 C 211.55 575.83 218.40 572.43 224.98 568.94 C 225.04 557.80 225.00 546.66 224.84 535.52 C 216.04 539.19 208.99 545.69 201.88 551.83 M 250.22 638.47 C 254.17 646.30 255.95 654.97 258.93 663.12 C 262.32 665.95 267.66 665.17 271.60 663.71 C 275.20 655.88 276.93 647.29 280.08 639.25 C 270.16 640.52 260.09 639.77 250.22 638.47 M 369.22 638.47 C 373.17 646.30 374.94 654.97 377.93 663.12 C 381.32 665.95 386.66 665.17 390.60 663.71 C 394.20 655.88 395.93 647.29 399.08 639.25 C 389.16 640.52 379.09 639.77 369.22 638.47 M 258.33 674.57 C 252.11 676.80 250.88 685.43 253.09 690.90 C 256.03 698.80 266.82 701.35 273.46 696.50 C 280.49 691.89 280.92 679.83 273.98 675.10 C 268.92 673.88 263.48 674.14 258.33 674.57 M 377.33 674.57 C 371.11 676.80 369.88 685.43 372.09 690.90 C 375.03 698.80 385.82 701.35 392.46 696.50 C 399.49 691.89 399.92 679.83 392.98 675.10 C 387.92 673.88 382.48 674.14 377.33 674.57 Z" />
<path fill="#000000" opacity="0.95" d=" M 602.50 95.89 C 604.67 90.24 608.02 85.09 612.88 81.40 C 612.76 90.04 612.23 98.77 609.93 107.13 C 606.70 105.13 603.45 103.16 600.82 100.39 C 600.27 102.91 599.74 105.44 599.23 107.97 C 597.66 106.61 596.03 105.27 594.78 103.60 C 595.15 96.76 597.03 89.99 600.51 84.07 C 602.78 87.35 602.88 91.37 601.82 95.09 C 601.99 95.29 602.33 95.69 602.50 95.89 Z" />
<path fill="#000000" opacity="0.95" d=" M 614.95 84.01 C 615.65 84.04 617.07 84.08 617.77 84.10 C 618.49 87.13 619.20 90.14 619.97 93.16 C 621.04 91.18 621.91 89.05 623.31 87.27 C 625.03 86.55 626.93 86.51 628.75 86.26 C 628.71 89.63 628.58 93.01 628.79 96.38 C 633.17 93.90 637.45 91.23 641.99 89.03 C 640.04 100.13 627.26 104.84 623.63 115.25 C 621.78 109.41 620.82 103.33 619.01 97.48 C 617.57 102.82 616.79 108.29 616.00 113.75 C 615.09 111.60 614.03 109.40 614.08 107.02 C 614.00 99.34 614.38 91.67 614.95 84.01 Z" />
<path fill="#000000" opacity="0.95" d=" M 33.33 489.46 C 35.57 487.14 38.13 485.17 40.82 483.42 C 43.36 487.38 45.62 491.87 45.04 496.73 C 43.60 498.98 41.13 500.31 39.18 502.08 C 34.07 499.14 28.72 496.64 23.22 494.53 C 23.17 493.90 23.06 492.63 23.01 492.00 C 28.00 492.68 33.07 493.08 37.88 494.71 C 38.17 493.91 38.47 493.13 38.77 492.34 C 36.95 491.39 35.14 490.42 33.33 489.46 Z" />
<path fill="#000000" opacity="0.95" d=" M 9.87 499.52 C 18.02 497.22 27.80 498.20 33.87 504.61 C 26.25 504.19 18.85 501.44 11.15 502.40 C 10.72 501.44 10.30 500.47 9.87 499.52 Z" />
</g>
</svg>
